<?xml version="1.0" encoding="utf-8"?>
<!-- Generator: Adobe Illustrator 21.0.2, SVG Export Plug-In . SVG Version: 6.00 Build 0)  -->
<svg version="1.1" id="Layer_1" xmlns="http://www.w3.org/2000/svg" xmlns:xlink="http://www.w3.org/1999/xlink" x="0px" y="0px"
	 viewBox="0 0 528.6 159.2" style="enable-background:new 0 0 528.6 159.2;" xml:space="preserve">
<style type="text/css">
	.st0{fill:#F47D20;}
</style>
<g>
	<path class="st0" d="M79.5,89.9H46.4l-8.6,18.8H25.2l38.2-82.1l36.9,82.1H87.6L79.5,89.9z M74.7,79L63.3,52.7L51.3,79H74.7z"/>
	<path class="st0" d="M119.1,135.2h-11.3V60h11.3v5.3c4.4-4.4,9.5-6.7,15.1-6.7c6.7,0,12.2,2.5,16.6,7.4c4.4,4.9,6.6,11.1,6.6,18.6
		c0,7.3-2.2,13.4-6.6,18.3c-4.3,4.8-9.8,7.3-16.4,7.3c-5.7,0-10.8-2.3-15.3-6.9V135.2z M145.9,84.6c0-4.7-1.3-8.5-3.8-11.4
		c-2.6-3-5.8-4.5-9.7-4.5c-4.1,0-7.5,1.4-10.1,4.3c-2.6,2.9-3.9,6.6-3.9,11.3c0,4.6,1.3,8.3,3.9,11.3c2.5,2.9,5.9,4.4,10,4.4
		c3.9,0,7.1-1.5,9.7-4.4C144.6,92.7,145.9,89,145.9,84.6z"/>
	<path class="st0" d="M179.9,135.2h-11.3V60h11.3v5.3c4.4-4.4,9.5-6.7,15.1-6.7c6.7,0,12.2,2.5,16.6,7.4c4.4,4.9,6.6,11.1,6.6,18.6
		c0,7.3-2.2,13.4-6.6,18.3c-4.3,4.8-9.8,7.3-16.4,7.3c-5.7,0-10.8-2.3-15.3-6.9V135.2z M206.7,84.6c0-4.7-1.3-8.5-3.8-11.4
		c-2.6-3-5.8-4.5-9.7-4.5c-4.1,0-7.5,1.4-10.1,4.3c-2.6,2.9-3.9,6.6-3.9,11.3c0,4.6,1.3,8.3,3.9,11.3c2.5,2.9,5.9,4.4,10,4.4
		c3.9,0,7.1-1.5,9.7-4.4C205.4,92.7,206.7,89,206.7,84.6z"/>
	<path class="st0" d="M228.6,31.5l20.1,51.6l21-55.4l20.1,55.4l21.4-51.6h12.7l-34.5,82.2l-19.9-54.7l-20.7,54.8L216,31.5H228.6z"/>
	<path class="st0" d="M320.6,84c0-7,2.5-13,7.6-18c5-4.9,11.2-7.4,18.4-7.4c7.3,0,13.4,2.5,18.5,7.5c5,5,7.5,11.1,7.5,18.3
		c0,7.3-2.5,13.4-7.6,18.4c-5.1,4.9-11.3,7.4-18.7,7.4c-7.3,0-13.4-2.5-18.4-7.5C323.1,97.7,320.6,91.5,320.6,84z M332.1,84.2
		c0,4.9,1.3,8.7,3.9,11.6c2.7,2.9,6.2,4.3,10.6,4.3c4.4,0,7.9-1.4,10.6-4.3c2.6-2.8,4-6.6,4-11.4c0-4.7-1.3-8.5-4-11.4
		c-2.7-2.9-6.2-4.3-10.6-4.3c-4.3,0-7.8,1.4-10.5,4.3C333.5,76,332.1,79.7,332.1,84.2z"/>
	<path class="st0" d="M383.5,60h11.3v4.4c2.1-2.2,3.9-3.7,5.5-4.4c1.6-0.8,3.6-1.3,5.8-1.3c3,0,6.1,1,9.3,2.9l-5.2,10.3
		c-2.1-1.5-4.2-2.3-6.3-2.3c-6.1,0-9.2,4.6-9.2,13.9v25.3h-11.3V60z"/>
	<path class="st0" d="M433.4,24.2v51.5L449.3,60h15.1l-21.2,20.5l22.7,28.3h-14.6l-16.1-20.6l-1.8,1.8v18.8h-11.3V24.2H433.4z"/>
	<path class="st0" d="M500.2,68.3l-9.3,5c-1.5-3-3.3-4.5-5.5-4.5c-1,0-1.9,0.3-2.7,1c-0.7,0.7-1.1,1.6-1.1,2.6
		c0,1.9,2.2,3.7,6.5,5.5c6,2.6,10,4.9,12.1,7.1c2.1,2.2,3.1,5.1,3.1,8.7c0,4.7-1.7,8.6-5.2,11.8c-3.4,3-7.4,4.5-12.2,4.5
		c-8.2,0-14-4-17.4-12l9.6-4.5c1.3,2.3,2.3,3.8,3.1,4.5c1.4,1.3,3,1.9,4.9,1.9c3.8,0,5.7-1.7,5.7-5.2c0-2-1.5-3.9-4.4-5.6
		c-1.1-0.6-2.3-1.1-3.4-1.7c-1.1-0.5-2.3-1.1-3.4-1.7c-3.3-1.6-5.6-3.2-6.9-4.8c-1.7-2-2.6-4.7-2.6-7.9c0-4.2,1.4-7.7,4.4-10.5
		c3-2.8,6.6-4.2,10.8-4.2C492.5,58.6,497.1,61.8,500.2,68.3z"/>
</g>
</svg>
