<?xml version="1.0" encoding="UTF-8"?>
<!DOCTYPE svg PUBLIC "-//W3C//DTD SVG 1.1//EN" "http://www.w3.org/Graphics/SVG/1.1/DTD/svg11.dtd">
<svg xmlns="http://www.w3.org/2000/svg" version="1.1" width="1082px" height="357px" style="shape-rendering:geometricPrecision; text-rendering:geometricPrecision; image-rendering:optimizeQuality; fill-rule:evenodd; clip-rule:evenodd" xmlns:xlink="http://www.w3.org/1999/xlink">
<g><path style="opacity:0.972" fill="#000000" d="M 403.5,-0.5 C 409.167,-0.5 414.833,-0.5 420.5,-0.5C 441.061,1.44392 459.395,8.94392 475.5,22C 469.025,31.7952 462.191,41.2952 455,50.5C 441.671,40.9999 426.838,35.3332 410.5,33.5C 401.337,33.1603 394.503,36.8269 390,44.5C 388.148,52.6284 390.981,58.4618 398.5,62C 414.395,67.3076 430.395,72.3076 446.5,77C 477.763,90.3774 487.596,113.211 476,145.5C 469.034,159.739 457.867,168.906 442.5,173C 412.744,179.915 384.744,175.581 358.5,160C 353.372,156.703 348.706,152.87 344.5,148.5C 351.532,139.098 359.032,130.098 367,121.5C 381.667,133.995 398.667,140.995 418,142.5C 424.141,142.117 429.975,140.617 435.5,138C 443.302,131.082 443.968,123.749 437.5,116C 433.779,113.473 429.779,111.473 425.5,110C 414.922,106.689 404.256,103.689 393.5,101C 355.529,90.229 343.029,66.0623 356,28.5C 362.005,17.4963 370.838,9.66302 382.5,5C 389.44,2.4526 396.44,0.619271 403.5,-0.5 Z"/></g>
<g><path style="opacity:0.977" fill="#000000" d="M 233.5,0.5 C 245.747,0.178176 257.914,0.511509 270,1.5C 294.167,58.5 318.333,115.5 342.5,172.5C 329.179,173.666 315.846,173.833 302.5,173C 297.006,160.68 292.006,148.18 287.5,135.5C 263.491,135.167 239.491,135.5 215.5,136.5C 210.5,148.5 205.5,160.5 200.5,172.5C 187.179,173.666 173.846,173.833 160.5,173C 185.257,115.656 209.59,58.1562 233.5,0.5 Z M 250.5,49.5 C 252.284,50.5738 253.451,52.2404 254,54.5C 260.47,70.0837 266.637,85.7503 272.5,101.5C 258.163,101.667 243.829,101.5 229.5,101C 236.642,83.8839 243.642,66.7172 250.5,49.5 Z"/></g>
<g><path style="opacity:0.971" fill="#000000" d="M -0.5,2.5 C 12.5,2.5 25.5,2.5 38.5,2.5C 38.5,24.8333 38.5,47.1667 38.5,69.5C 61.1667,69.5 83.8333,69.5 106.5,69.5C 106.5,47.1667 106.5,24.8333 106.5,2.5C 119.5,2.5 132.5,2.5 145.5,2.5C 145.5,59.5 145.5,116.5 145.5,173.5C 132.5,173.5 119.5,173.5 106.5,173.5C 106.5,150.833 106.5,128.167 106.5,105.5C 83.8333,105.5 61.1667,105.5 38.5,105.5C 38.5,128.167 38.5,150.833 38.5,173.5C 25.5,173.5 12.5,173.5 -0.5,173.5C -0.5,116.5 -0.5,59.5 -0.5,2.5 Z"/></g>
<g><path style="opacity:0.984" fill="#000000" d="M 501.5,2.5 C 514.167,2.5 526.833,2.5 539.5,2.5C 539.5,24.8333 539.5,47.1667 539.5,69.5C 562.167,69.5 584.833,69.5 607.5,69.5C 607.5,47.1667 607.5,24.8333 607.5,2.5C 620.5,2.5 633.5,2.5 646.5,2.5C 646.5,59.5 646.5,116.5 646.5,173.5C 633.5,173.5 620.5,173.5 607.5,173.5C 607.5,150.833 607.5,128.167 607.5,105.5C 584.833,105.5 562.167,105.5 539.5,105.5C 539.5,128.167 539.5,150.833 539.5,173.5C 526.833,173.5 514.167,173.5 501.5,173.5C 501.5,116.5 501.5,59.5 501.5,2.5 Z"/></g>
<g><path style="opacity:0.975" fill="#000000" d="M 707.5,2.5 C 725.836,2.33339 744.17,2.50006 762.5,3C 735.986,29.6805 709.32,56.1805 682.5,82.5C 673.167,73.8333 664.167,64.8333 655.5,55.5C 672.855,37.8125 690.188,20.1459 707.5,2.5 Z"/></g>
<g><path style="opacity:0.987" fill="#000000" d="M 775.5,2.5 C 818.833,2.5 862.167,2.5 905.5,2.5C 905.5,13.8333 905.5,25.1667 905.5,36.5C 874.833,36.5 844.167,36.5 813.5,36.5C 813.5,47.8333 813.5,59.1667 813.5,70.5C 840.5,70.5 867.5,70.5 894.5,70.5C 894.5,81.8333 894.5,93.1667 894.5,104.5C 867.5,104.5 840.5,104.5 813.5,104.5C 813.5,116.167 813.5,127.833 813.5,139.5C 844.5,139.5 875.5,139.5 906.5,139.5C 906.5,150.833 906.5,162.167 906.5,173.5C 862.833,173.5 819.167,173.5 775.5,173.5C 775.5,116.5 775.5,59.5 775.5,2.5 Z"/></g>
<g><path style="opacity:0.979" fill="#000000" d="M 1081.5,2.5 C 1081.5,2.83333 1081.5,3.16667 1081.5,3.5C 1059.44,37.2655 1037.61,71.2655 1016,105.5C 1015.5,128.164 1015.33,150.831 1015.5,173.5C 1002.83,173.5 990.167,173.5 977.5,173.5C 977.667,151.164 977.5,128.831 977,106.5C 955.167,72 933.333,37.5 911.5,3C 926.5,2.33333 941.5,2.33333 956.5,3C 970.126,25.0834 983.626,47.25 997,69.5C 1010.37,47.25 1023.87,25.0834 1037.5,3C 1052.16,2.50009 1066.83,2.33342 1081.5,2.5 Z"/></g>
<g><path style="opacity:0.978" fill="#000000" d="M 681.5,94.5 C 708.582,120.081 735.249,146.248 761.5,173C 743.5,173.667 725.5,173.667 707.5,173C 690.167,155.667 672.833,138.333 655.5,121C 664.369,112.298 673.036,103.465 681.5,94.5 Z"/></g>
<g><path style="opacity:0.921" fill="#000000" d="M 815.5,236.5 C 823.167,236.5 830.833,236.5 838.5,236.5C 838.5,242.833 838.5,249.167 838.5,255.5C 830.833,255.5 823.167,255.5 815.5,255.5C 815.5,249.167 815.5,242.833 815.5,236.5 Z"/></g>
<g><path style="opacity:0.92" fill="#000000" d="M 974.5,236.5 C 981.833,236.5 989.167,236.5 996.5,236.5C 996.5,269.5 996.5,302.5 996.5,335.5C 989.167,335.5 981.833,335.5 974.5,335.5C 974.5,302.5 974.5,269.5 974.5,236.5 Z"/></g>
<g><path style="opacity:0.95" fill="#000000" d="M 599.5,239.5 C 613.193,237.873 626.193,240.04 638.5,246C 641.818,248.319 644.818,250.985 647.5,254C 643.586,259.648 639.086,264.815 634,269.5C 629.219,265.19 623.719,262.023 617.5,260C 596.553,257.61 585.22,266.944 583.5,288C 585.22,309.056 596.553,318.39 617.5,316C 624.099,313.725 629.933,310.225 635,305.5C 639.333,309.833 643.667,314.167 648,318.5C 648.667,319.167 648.667,319.833 648,320.5C 634.754,334.47 618.587,339.636 599.5,336C 574.918,329.541 561.918,313.541 560.5,288C 562.398,262.628 575.398,246.461 599.5,239.5 Z"/></g>
<g><path style="opacity:0.964" fill="#000000" d="M 501.5,244.5 C 516.621,257.787 530.955,271.954 544.5,287C 530.708,301.792 516.542,316.292 502,330.5C 501.5,301.835 501.333,273.169 501.5,244.5 Z"/></g>
<g><path style="opacity:0.964" fill="#000000" d="M 853.5,244.5 C 860.5,244.5 867.5,244.5 874.5,244.5C 874.5,250.5 874.5,256.5 874.5,262.5C 880.167,262.5 885.833,262.5 891.5,262.5C 891.5,268.5 891.5,274.5 891.5,280.5C 885.833,280.5 880.167,280.5 874.5,280.5C 874.064,292.243 874.564,303.91 876,315.5C 881.14,318.198 886.14,317.865 891,314.5C 891.809,320.749 891.642,326.916 890.5,333C 880.473,337.619 870.473,337.619 860.5,333C 857.894,331.062 856.061,328.562 855,325.5C 853.566,310.558 853.066,295.558 853.5,280.5C 850.833,280.5 848.167,280.5 845.5,280.5C 845.5,274.5 845.5,268.5 845.5,262.5C 848.167,262.5 850.833,262.5 853.5,262.5C 853.5,256.5 853.5,250.5 853.5,244.5 Z"/></g>
<g><path style="opacity:0.945" fill="#000000" d="M 681.5,261.5 C 694.787,259.936 705.954,263.936 715,273.5C 717.133,277.232 718.466,281.232 719,285.5C 719.5,302.163 719.667,318.83 719.5,335.5C 712.5,335.5 705.5,335.5 698.5,335.5C 698.662,333.473 698.495,331.473 698,329.5C 687.734,336.936 676.567,338.436 664.5,334C 652.925,326.23 649.758,315.73 655,302.5C 661.882,293.584 671.048,289.584 682.5,290.5C 688.256,290.285 693.756,291.285 699,293.5C 699.306,287.297 696.473,283.131 690.5,281C 681.474,279.678 672.807,280.845 664.5,284.5C 662.199,279.097 660.199,273.597 658.5,268C 665.981,264.717 673.648,262.55 681.5,261.5 Z M 683.5,303.5 C 688.904,303.414 694.071,304.414 699,306.5C 699.541,316.462 694.708,321.462 684.5,321.5C 675.549,321.081 672.383,316.747 675,308.5C 677.398,305.892 680.231,304.225 683.5,303.5 Z"/></g>
<g><path style="opacity:0.959" fill="#000000" d="M 752.5,356.5 C 745.5,356.5 738.5,356.5 731.5,356.5C 731.5,325.167 731.5,293.833 731.5,262.5C 738.5,262.5 745.5,262.5 752.5,262.5C 752.335,265.518 752.502,268.518 753,271.5C 760.4,262.596 769.9,259.429 781.5,262C 799.054,267.914 807.721,280.248 807.5,299C 806.575,324.93 793.241,337.263 767.5,336C 761.674,334.837 756.841,332.003 753,327.5C 752.5,337.161 752.334,346.828 752.5,356.5 Z M 765.5,279.5 C 778.389,279.553 785.389,286.053 786.5,299C 783.994,315.901 774.994,321.234 759.5,315C 752.558,308.041 750.724,299.874 754,290.5C 756.437,285.226 760.271,281.56 765.5,279.5 Z"/></g>
<g><path style="opacity:0.948" fill="#000000" d="M 924.5,261.5 C 935.425,260.555 945.425,263.055 954.5,269C 958.463,273.427 960.963,278.594 962,284.5C 962.5,301.497 962.667,318.497 962.5,335.5C 955.833,335.5 949.167,335.5 942.5,335.5C 942.663,333.143 942.497,330.81 942,328.5C 931.685,336.949 920.185,338.782 907.5,334C 894.432,324.22 892.266,312.386 901,298.5C 908.033,292.545 916.199,289.878 925.5,290.5C 931.256,290.285 936.756,291.285 942,293.5C 942.287,287.248 939.454,283.081 933.5,281C 924.617,279.656 916.117,280.823 908,284.5C 905.106,279.155 903.439,273.489 903,267.5C 909.988,264.464 917.154,262.464 924.5,261.5 Z M 926.5,303.5 C 931.951,303.159 937.118,304.159 942,306.5C 942.558,316.446 937.725,321.446 927.5,321.5C 918.604,321.126 915.437,316.793 918,308.5C 920.398,305.892 923.231,304.225 926.5,303.5 Z"/></g>
<g><path style="opacity:0.971" fill="#000000" d="M 816.5,262.5 C 823.5,262.5 830.5,262.5 837.5,262.5C 837.5,286.833 837.5,311.167 837.5,335.5C 830.5,335.5 823.5,335.5 816.5,335.5C 816.5,311.167 816.5,286.833 816.5,262.5 Z"/></g>
</svg>
