<svg width="678" height="529" viewBox="0 0 678 529" fill="none" xmlns="http://www.w3.org/2000/svg">
<g filter="url(#filter0_d_1592_824)">
<path d="M609 25L609 513L249 513C114.243 513 5 403.757 5 269C5 134.243 114.243 25 249 25L609 25Z" fill="#FDAE40"/>
</g>
<path d="M678 53L250 53C130.707 53 34 149.707 34 269V269C34 388.294 130.707 485 250 485L678 485" stroke="url(#paint0_linear_1592_824)" stroke-width="15"/>
<path d="M331 17L260 17C120.824 17 8.00001 129.824 8.00001 269V269C8.00001 408.176 120.824 521 260 521L331 521" stroke="url(#paint1_linear_1592_824)" stroke-width="15"/>
<path d="M609 438L256 438C163.768 438 89 363.232 89 271L89 258C89 165.768 163.768 91 256 91L609 91L609 438Z" fill="#EB951B"/>
<path d="M407 264.5C407 345.962 340.962 412 259.5 412L236.5 412C155.038 412 89 345.962 89 264.5C89 183.038 155.038 117 236.5 117L259.5 117C340.962 117 407 183.038 407 264.5Z" fill="#3461FF"/>
<path d="M337 161L374.5 351.5L351 378.5L316.5 400L283.5 410.5L246 413L212.5 410.5L185 405L155 391L129 370L180 161L337 161Z" fill="url(#paint2_linear_1592_824)" fill-opacity="0.42"/>
<path d="M183.648 185.277L183.648 227.074" stroke="#263238" stroke-dasharray="6 6"/>
<path d="M256.797 185.277L256.797 227.074" stroke="#263238" stroke-dasharray="6 6"/>
<path d="M330.742 185.277L330.742 227.074" stroke="#263238" stroke-dasharray="6 6"/>
<path d="M183.648 322.725L183.648 364.521" stroke="#263238" stroke-dasharray="6 6"/>
<path d="M256.797 322.725L256.797 364.521" stroke="#263238" stroke-dasharray="6 6"/>
<path d="M330.742 322.725L330.742 364.521" stroke="#263238" stroke-dasharray="6 6"/>
<path d="M118.531 159.541C118.531 158.16 119.651 157.041 121.031 157.041H400.082C401.463 157.041 402.582 158.16 402.582 159.541V166.975C402.582 172.221 398.329 176.475 393.082 176.475H128.031C122.785 176.475 118.531 172.221 118.531 166.975V159.541Z" fill="#263238" stroke="#263238"/>
<path d="M165.448 100.462C166.302 99.4121 167.584 98.8027 168.938 98.8027H358.089C359.552 98.8027 360.924 99.5136 361.767 100.709L401.199 156.608C403.302 159.589 401.17 163.702 397.522 163.702H123.439C119.648 163.702 117.555 159.301 119.949 156.361L165.448 100.462Z" fill="#FFBB5C" stroke="#263238"/>
<path d="M167.492 104.537C168.347 103.495 169.623 102.891 170.971 102.891H354.208C355.665 102.891 357.031 103.596 357.875 104.783L391.442 151.998C393.56 154.977 391.43 159.105 387.774 159.105H132.241C128.442 159.105 126.352 154.688 128.761 151.751L167.492 104.537Z" fill="#EB951B" stroke="#263238"/>
<path d="M209.462 86.679C210.276 85.3268 211.739 84.5 213.317 84.5H265.236C267.342 84.5 269.166 85.96 269.627 88.0143L278.621 128.077C279.252 130.89 277.113 133.563 274.23 133.563H189.198C185.697 133.563 183.537 129.741 185.343 126.742L209.462 86.679Z" fill="#FFBB5C" stroke="#263238"/>
<path d="M154.608 140.257C154.892 139.887 155.332 139.67 155.798 139.67L199.121 139.67C200.126 139.67 200.846 140.639 200.558 141.601L192.562 168.252C192.372 168.886 191.788 169.321 191.126 169.321H135.366C134.123 169.321 133.419 167.895 134.176 166.908L154.608 140.257Z" fill="#FFBB5C" stroke="#263238"/>
<path d="M168.906 148.417C169.191 148.055 169.625 147.844 170.086 147.844L188.883 147.844C189.892 147.844 190.614 148.82 190.317 149.785L187.149 160.088C186.956 160.718 186.374 161.147 185.716 161.147H161.99C160.738 161.147 160.037 159.705 160.81 158.721L168.906 148.417Z" fill="#EB951B" stroke="#263238"/>
<path d="M288.582 86.517C288.222 85.538 288.947 84.5 289.99 84.5H304.69C305.296 84.5 305.843 84.8655 306.076 85.4262L331.494 146.814C331.903 147.802 331.177 148.888 330.108 148.888H312.531C311.902 148.888 311.34 148.496 311.123 147.905L288.582 86.517Z" fill="#FFBB5C" stroke="#263238"/>
<path d="M329.632 113.663C329.21 112.673 329.936 111.574 331.012 111.574H345.657C346.222 111.574 346.739 111.892 346.995 112.396L364.38 146.71C364.886 147.707 364.161 148.888 363.042 148.888H345.652C345.052 148.888 344.509 148.529 344.273 147.976L329.632 113.663Z" fill="#FFBB5C" stroke="#263238"/>
<path d="M216.2 92.3787C216.472 91.928 216.959 91.6523 217.486 91.6523H224.419C225.476 91.6523 226.201 92.7171 225.815 93.7012L220.559 107.07C220.333 107.644 219.779 108.021 219.163 108.021H209.437C208.27 108.021 207.55 106.747 208.152 105.747L216.2 92.3787L215.772 92.1208L216.2 92.3787Z" fill="#FFBB5C" stroke="#263238"/>
<path d="M233.499 92.6729C233.705 92.063 234.276 91.6523 234.92 91.6523H242.483C243.311 91.6523 243.983 92.3239 243.983 93.1523V106.521C243.983 107.349 243.311 108.021 242.483 108.021H230.41C229.384 108.021 228.661 107.014 228.989 106.042L233.499 92.6729Z" fill="#263238" stroke="#263238"/>
<path d="M249.967 93.261C249.904 92.392 250.592 91.6523 251.463 91.6523H259.432C260.144 91.6523 260.757 92.1527 260.901 92.8499L263.653 106.219C263.845 107.149 263.134 108.021 262.184 108.021H252.434C251.647 108.021 250.995 107.414 250.938 106.63L249.967 93.261Z" fill="#FFBB5C" stroke="#263238"/>
<path d="M172.688 151.432L181.883 156.54" stroke="#263238"/>
<path d="M170.133 157.049L183.415 151.43" stroke="#263238"/>
<rect x="221.719" y="269.426" width="69.4965" height="18.4121" rx="2.5" fill="#FFBB5C" stroke="#263238"/>
<rect x="227.852" y="276.578" width="30.6723" height="4.10844" rx="2.05422" stroke="#263238"/>
<rect x="273.828" y="276.578" width="4.10844" height="4.10844" rx="2.05422" stroke="#263238"/>
<rect x="221.719" y="291.903" width="69.4965" height="18.4121" rx="2.5" fill="#FFBB5C" stroke="#263238"/>
<rect x="227.851" y="299.055" width="30.6723" height="4.10844" rx="2.05422" stroke="#263238"/>
<rect x="273.828" y="299.055" width="4.10844" height="4.10844" rx="2.05422" stroke="#263238"/>
<path d="M233.982 233.486C234.456 232.952 235.136 232.646 235.85 232.646H282.295C283.201 232.646 284.036 233.136 284.477 233.927L290.869 245.364C291.793 247.017 290.614 249.058 288.72 249.083L224.952 249.945C222.779 249.974 221.606 247.409 223.05 245.784L233.982 233.486Z" fill="#263238" stroke="#263238"/>
<rect x="221.719" y="246.951" width="69.4965" height="18.4121" rx="2.5" fill="#EB951B" stroke="#263238"/>
<rect x="227.852" y="254.104" width="30.6723" height="4.10844" rx="2.05422" stroke="#263238"/>
<rect x="273.828" y="254.104" width="4.10844" height="4.10844" rx="2.05422" fill="#FFBB5C" stroke="#263238"/>
<path d="M319.29 249.251L303.605 232.645H356.398C357.049 232.645 357.675 232.899 358.141 233.353L370.876 245.743C372.484 247.308 371.376 250.035 369.132 250.035H321.107C320.419 250.035 319.762 249.752 319.29 249.251Z" fill="#EB951B" stroke="#263238"/>
<path d="M303.461 250.687V232.862L321.043 250.908C321.557 251.435 321.812 252.161 321.741 252.893L320.899 261.599C320.704 263.613 318.32 264.573 316.783 263.256L304.334 252.585C303.78 252.11 303.461 251.417 303.461 250.687Z" fill="#263238" stroke="#263238"/>
<path d="M303.461 276.074V257.249L320.933 272.422C321.518 272.93 321.834 273.679 321.79 274.452L321.165 285.394C321.052 287.366 318.806 288.434 317.205 287.278L304.497 278.101C303.846 277.631 303.461 276.877 303.461 276.074Z" fill="#263238" stroke="#263238"/>
<path d="M303.461 296.127V282.154L320.731 294.425C321.432 294.923 321.828 295.747 321.779 296.606L321.192 306.883C321.075 308.933 318.673 309.975 317.096 308.661L304.36 298.048C303.79 297.573 303.461 296.869 303.461 296.127Z" fill="#263238" stroke="#263238"/>
<rect x="317.766" y="246.947" width="56.2145" height="18.4121" rx="2.5" fill="#FFBB5C" stroke="#263238"/>
<rect x="323.898" y="254.1" width="23.5205" height="4.10844" rx="2.05422" stroke="#263238"/>
<rect x="364.758" y="254.1" width="4.10844" height="4.10844" rx="2.05422" stroke="#263238"/>
<rect x="317.766" y="269.426" width="56.2145" height="18.4121" rx="2.5" fill="#FFBB5C" stroke="#263238"/>
<rect x="323.898" y="276.578" width="23.5205" height="4.10844" rx="2.05422" stroke="#263238"/>
<rect x="364.758" y="276.578" width="4.10844" height="4.10844" rx="2.05422" fill="#FFBB5C" stroke="#263238"/>
<rect x="317.766" y="291.902" width="56.2145" height="18.4121" rx="2.5" fill="#FFBB5C" stroke="#263238"/>
<rect x="323.898" y="299.055" width="23.5205" height="4.10844" rx="2.05422" stroke="#263238"/>
<rect x="364.758" y="299.055" width="4.10844" height="4.10844" rx="2.05422" stroke="#263238"/>
<path d="M196.71 249.251L212.395 232.645H159.602C158.951 232.645 158.325 232.899 157.859 233.353L145.124 245.743C143.516 247.308 144.624 250.035 146.868 250.035H194.893C195.581 250.035 196.238 249.752 196.71 249.251Z" fill="#EB951B" stroke="#263238"/>
<path d="M212.539 250.687V232.862L194.957 250.908C194.443 251.435 194.188 252.161 194.259 252.893L195.101 261.599C195.296 263.613 197.68 264.573 199.217 263.256L211.666 252.585C212.22 252.11 212.539 251.417 212.539 250.687Z" fill="#263238" stroke="#263238"/>
<path d="M212.539 276.074V257.249L195.067 272.422C194.482 272.93 194.166 273.679 194.21 274.452L194.835 285.394C194.948 287.366 197.194 288.434 198.795 287.278L211.503 278.101C212.154 277.631 212.539 276.877 212.539 276.074Z" fill="#263238" stroke="#263238"/>
<path d="M212.539 296.127V282.154L195.269 294.425C194.568 294.923 194.172 295.747 194.221 296.606L194.808 306.883C194.925 308.933 197.327 309.975 198.904 308.661L211.64 298.048C212.21 297.573 212.539 296.869 212.539 296.127Z" fill="#263238" stroke="#263238"/>
<rect x="-0.5" y="0.5" width="56.2145" height="18.4121" rx="2.5" transform="matrix(-1 0 0 1 197.742 246.447)" fill="#FFBB5C" stroke="#263238"/>
<rect x="-0.5" y="0.5" width="23.5205" height="4.10844" rx="2.05422" transform="matrix(-1 0 0 1 191.609 253.6)" stroke="#263238"/>
<rect x="-0.5" y="0.5" width="4.10844" height="4.10844" rx="2.05422" transform="matrix(-1 0 0 1 150.75 253.6)" fill="#FFBB5C" stroke="#263238"/>
<rect x="-0.5" y="0.5" width="56.2145" height="18.4121" rx="2.5" transform="matrix(-1 0 0 1 197.742 268.926)" fill="#FFBB5C" stroke="#263238"/>
<rect x="-0.5" y="0.5" width="23.5205" height="4.10844" rx="2.05422" transform="matrix(-1 0 0 1 191.609 276.078)" stroke="#263238"/>
<rect x="-0.5" y="0.5" width="4.10844" height="4.10844" rx="2.05422" transform="matrix(-1 0 0 1 150.75 276.078)" stroke="#263238"/>
<rect x="-0.5" y="0.5" width="56.2145" height="18.4121" rx="2.5" transform="matrix(-1 0 0 1 197.742 291.402)" fill="#FFBB5C" stroke="#263238"/>
<rect x="-0.5" y="0.5" width="23.5205" height="4.10844" rx="2.05422" transform="matrix(-1 0 0 1 191.609 298.555)" stroke="#263238"/>
<rect x="-0.5" y="0.5" width="4.10844" height="4.10844" rx="2.05422" transform="matrix(-1 0 0 1 150.75 298.555)" stroke="#263238"/>
<path d="M240.111 402.267L240.139 395.094L279.977 395.094V402.267H240.111Z" fill="#FFBB5C" stroke="#263238"/>
<path d="M240.352 394.094L247.724 373.639H273.784L279.839 394.094H240.352Z" fill="#263238" stroke="black"/>
<path d="M236.822 460.369L236.857 451.578L284.776 451.579V460.369H236.822Z" fill="#263238" stroke="#263238"/>
<path d="M237.071 450.577L245.973 425.875H277.334L284.646 450.577H237.071Z" fill="#EB951B" stroke="#263238"/>
<path d="M166.549 402.267L166.577 395.094L206.414 395.094V402.267H166.549Z" fill="#FFBB5C" stroke="#263238"/>
<path d="M167.03 394.094L181.123 373.639H217.327L206.643 394.094H167.03Z" fill="#263238" stroke="#263238"/>
<path d="M148.697 460.369L148.732 451.578L196.651 451.579V460.369H148.697Z" fill="#263238" stroke="#263238"/>
<path d="M149.186 450.577L166.205 425.875H209.789L196.887 450.577H149.186Z" fill="#EB951B" stroke="#263238"/>
<path d="M306.01 402.267L306.038 395.094L345.875 395.094V402.267H306.01Z" fill="#FFBB5C" stroke="#263238"/>
<path d="M305.89 394.094L298.554 373.639H329.78L345.395 394.094H305.89Z" fill="#263238" stroke="#263238"/>
<path d="M371.893 398.18L371.912 393.262L400.484 393.262V398.18H371.893Z" fill="#FFBB5C" stroke="#263238"/>
<path d="M371.768 392.261L366.554 377.725H388.901L399.999 392.261H371.768Z" fill="#263238" stroke="#263238"/>
<path d="M143.061 398.18L143.041 393.262L114.469 393.262V398.18H143.061Z" fill="#FFBB5C" stroke="#263238"/>
<path d="M143.186 392.261L148.399 377.725H126.052L114.954 392.261H143.186Z" fill="#263238" stroke="#263238"/>
<path d="M315.76 460.369L315.794 451.578L363.714 451.579V460.369H315.76Z" fill="#263238" stroke="#263238"/>
<path d="M315.647 450.577L306.789 425.875H344.383L363.24 450.577H315.647Z" fill="#EB951B" stroke="#263238"/>
<path d="M475 78H561" stroke="#263238" stroke-width="2"/>
<path d="M496 133H605" stroke="#263238" stroke-width="2"/>
<path d="M484 196H546" stroke="#263238" stroke-width="2"/>
<path d="M464 279H515" stroke="#263238" stroke-width="2"/>
<path d="M465 417H551" stroke="#263238" stroke-width="2"/>
<path d="M277 12L347 12" stroke="#FDAE40" stroke-width="2"/>
<path d="M359 1H399" stroke="#FDAE40" stroke-width="2"/>
<defs>
<filter id="filter0_d_1592_824" x="1" y="25" width="612" height="496" filterUnits="userSpaceOnUse" color-interpolation-filters="sRGB">
<feFlood flood-opacity="0" result="BackgroundImageFix"/>
<feColorMatrix in="SourceAlpha" type="matrix" values="0 0 0 0 0 0 0 0 0 0 0 0 0 0 0 0 0 0 127 0" result="hardAlpha"/>
<feOffset dy="4"/>
<feGaussianBlur stdDeviation="2"/>
<feComposite in2="hardAlpha" operator="out"/>
<feColorMatrix type="matrix" values="0 0 0 0 0 0 0 0 0 0 0 0 0 0 0 0 0 0 0.25 0"/>
<feBlend mode="normal" in2="BackgroundImageFix" result="effect1_dropShadow_1592_824"/>
<feBlend mode="normal" in="SourceGraphic" in2="effect1_dropShadow_1592_824" result="shape"/>
</filter>
<linearGradient id="paint0_linear_1592_824" x1="74.5" y1="176.5" x2="678" y2="176.5" gradientUnits="userSpaceOnUse">
<stop stop-color="#FFBF65"/>
<stop offset="1" stop-color="#FFBF65" stop-opacity="0"/>
</linearGradient>
<linearGradient id="paint1_linear_1592_824" x1="42.6989" y1="161.083" x2="559.756" y2="161.083" gradientUnits="userSpaceOnUse">
<stop stop-color="#FFD59A"/>
<stop offset="0.203125" stop-color="#FFBF65" stop-opacity="0"/>
</linearGradient>
<linearGradient id="paint2_linear_1592_824" x1="270.5" y1="341.5" x2="270.5" y2="173" gradientUnits="userSpaceOnUse">
<stop stop-color="#73D0FF"/>
<stop offset="1" stop-color="#13394D"/>
</linearGradient>
</defs>
</svg>
