<svg width="1440" height="606" viewBox="0 0 1440 606" fill="none" xmlns="http://www.w3.org/2000/svg">
<line x1="51.5" y1="54" x2="51.5" y2="514" stroke="#EFEFF6"/>
<line x1="67.5" y1="54" x2="67.5" y2="514" stroke="#EFEFF6"/>
<line x1="83.5" y1="54" x2="83.5" y2="514" stroke="#EFEFF6"/>
<line x1="99.5" y1="54" x2="99.5" y2="514" stroke="#EFEFF6"/>
<line x1="115.5" y1="54" x2="115.5" y2="514" stroke="#EFEFF6"/>
<line x1="131.5" y1="54" x2="131.5" y2="514" stroke="#EFEFF6"/>
<line x1="147.5" y1="54" x2="147.5" y2="514" stroke="#EFEFF6"/>
<line x1="163.5" y1="54" x2="163.5" y2="514" stroke="#EFEFF6"/>
<line x1="179.5" y1="54" x2="179.5" y2="514" stroke="#EFEFF6"/>
<line x1="195.5" y1="54" x2="195.5" y2="514" stroke="#EFEFF6"/>
<line x1="211.5" y1="54" x2="211.5" y2="514" stroke="#EFEFF6"/>
<line x1="227.5" y1="54" x2="227.5" y2="514" stroke="#EFEFF6"/>
<line x1="243.5" y1="54" x2="243.5" y2="514" stroke="#EFEFF6"/>
<line x1="259.5" y1="54" x2="259.5" y2="514" stroke="#EFEFF6"/>
<line x1="275.5" y1="54" x2="275.5" y2="514" stroke="#EFEFF6"/>
<line x1="291.5" y1="54" x2="291.5" y2="514" stroke="#EFEFF6"/>
<line x1="307.5" y1="54" x2="307.5" y2="514" stroke="#EFEFF6"/>
<line x1="323.5" y1="54" x2="323.5" y2="514" stroke="#EFEFF6"/>
<line x1="339.5" y1="54" x2="339.5" y2="514" stroke="#EFEFF6"/>
<line x1="355.5" y1="54" x2="355.5" y2="514" stroke="#EFEFF6"/>
<line x1="371.5" y1="54" x2="371.5" y2="514" stroke="#EFEFF6"/>
<line x1="387.5" y1="54" x2="387.5" y2="514" stroke="#EFEFF6"/>
<line x1="403.5" y1="54" x2="403.5" y2="514" stroke="#EFEFF6"/>
<line x1="419.5" y1="54" x2="419.5" y2="514" stroke="#EFEFF6"/>
<line x1="435.5" y1="54" x2="435.5" y2="514" stroke="#EFEFF6"/>
<line x1="451.5" y1="54" x2="451.5" y2="514" stroke="#EFEFF6"/>
<line x1="467.5" y1="54" x2="467.5" y2="514" stroke="#EFEFF6"/>
<line x1="483.5" y1="54" x2="483.5" y2="514" stroke="#EFEFF6"/>
<line x1="499.5" y1="54" x2="499.5" y2="514" stroke="#EFEFF6"/>
<line x1="515.5" y1="54" x2="515.5" y2="514" stroke="#EFEFF6"/>
<line x1="531.5" y1="54" x2="531.5" y2="514" stroke="#EFEFF6"/>
<line x1="547.5" y1="54" x2="547.5" y2="514" stroke="#EFEFF6"/>
<line x1="563.5" y1="54" x2="563.5" y2="514" stroke="#EFEFF6"/>
<line x1="579.5" y1="54" x2="579.5" y2="514" stroke="#EFEFF6"/>
<line x1="595.5" y1="54" x2="595.5" y2="514" stroke="#EFEFF6"/>
<line x1="611.5" y1="54" x2="611.5" y2="514" stroke="#EFEFF6"/>
<line x1="627.5" y1="54" x2="627.5" y2="514" stroke="#EFEFF6"/>
<line x1="643.5" y1="54" x2="643.5" y2="514" stroke="#EFEFF6"/>
<line x1="659.5" y1="54" x2="659.5" y2="514" stroke="#EFEFF6"/>
<line x1="670" y1="68.5" x2="39" y2="68.5" stroke="#EFEFF6"/>
<line x1="670" y1="84.5" x2="39" y2="84.5" stroke="#EFEFF6"/>
<line x1="670" y1="100.5" x2="39" y2="100.5" stroke="#EFEFF6"/>
<line x1="670" y1="116.5" x2="39" y2="116.5" stroke="#EFEFF6"/>
<line x1="670" y1="132.5" x2="39" y2="132.5" stroke="#EFEFF6"/>
<line x1="670" y1="148.5" x2="39" y2="148.5" stroke="#EFEFF6"/>
<line x1="670" y1="164.5" x2="39" y2="164.5" stroke="#EFEFF6"/>
<line x1="670" y1="180.5" x2="39" y2="180.5" stroke="#EFEFF6"/>
<line x1="670" y1="196.5" x2="39" y2="196.5" stroke="#EFEFF6"/>
<line x1="670" y1="212.5" x2="39" y2="212.5" stroke="#EFEFF6"/>
<line x1="670" y1="228.5" x2="39" y2="228.5" stroke="#EFEFF6"/>
<line x1="670" y1="244.5" x2="39" y2="244.5" stroke="#EFEFF6"/>
<line x1="670" y1="260.5" x2="39" y2="260.5" stroke="#EFEFF6"/>
<line x1="670" y1="276.5" x2="39" y2="276.5" stroke="#EFEFF6"/>
<line x1="670" y1="292.5" x2="39" y2="292.5" stroke="#EFEFF6"/>
<line x1="670" y1="308.5" x2="39" y2="308.5" stroke="#EFEFF6"/>
<line x1="670" y1="324.5" x2="39" y2="324.5" stroke="#EFEFF6"/>
<line x1="670" y1="340.5" x2="39" y2="340.5" stroke="#EFEFF6"/>
<line x1="670" y1="356.5" x2="39" y2="356.5" stroke="#EFEFF6"/>
<line x1="670" y1="372.5" x2="39" y2="372.5" stroke="#EFEFF6"/>
<line x1="670" y1="388.5" x2="39" y2="388.5" stroke="#EFEFF6"/>
<line x1="670" y1="404.5" x2="39" y2="404.5" stroke="#EFEFF6"/>
<line x1="670" y1="420.5" x2="39" y2="420.5" stroke="#EFEFF6"/>
<line x1="670" y1="436.5" x2="39" y2="436.5" stroke="#EFEFF6"/>
<line x1="670" y1="452.5" x2="39" y2="452.5" stroke="#EFEFF6"/>
<line x1="670" y1="468.5" x2="39" y2="468.5" stroke="#EFEFF6"/>
<line x1="670" y1="484.5" x2="39" y2="484.5" stroke="#EFEFF6"/>
<line x1="670" y1="500.5" x2="39" y2="500.5" stroke="#EFEFF6"/>
<line x1="1293.5" y1="54" x2="1293.5" y2="514" stroke="#EFEFF6"/>
<line x1="1309.5" y1="54" x2="1309.5" y2="514" stroke="#EFEFF6"/>
<line x1="1325.5" y1="54" x2="1325.5" y2="514" stroke="#EFEFF6"/>
<line x1="1341.5" y1="54" x2="1341.5" y2="514" stroke="#EFEFF6"/>
<line x1="1357.5" y1="54" x2="1357.5" y2="514" stroke="#EFEFF6"/>
<line x1="1373.5" y1="54" x2="1373.5" y2="514" stroke="#EFEFF6"/>
<line x1="1437.5" y1="54" x2="1437.5" y2="514" stroke="#EFEFF6"/>
<line x1="1388" y1="68.5" x2="1281" y2="68.5" stroke="#EFEFF6"/>
<line x1="1388" y1="84.5" x2="1281" y2="84.5" stroke="#EFEFF6"/>
<line x1="1388" y1="100.5" x2="1281" y2="100.5" stroke="#EFEFF6"/>
<line x1="1388" y1="116.5" x2="1281" y2="116.5" stroke="#EFEFF6"/>
<line x1="1388" y1="132.5" x2="1281" y2="132.5" stroke="#EFEFF6"/>
<line x1="1388" y1="148.5" x2="1281" y2="148.5" stroke="#EFEFF6"/>
<line x1="1388" y1="164.5" x2="1281" y2="164.5" stroke="#EFEFF6"/>
<line x1="1388" y1="180.5" x2="1281" y2="180.5" stroke="#EFEFF6"/>
<line x1="1388" y1="196.5" x2="1281" y2="196.5" stroke="#EFEFF6"/>
<line x1="1388" y1="212.5" x2="1281" y2="212.5" stroke="#EFEFF6"/>
<line x1="1388" y1="228.5" x2="1281" y2="228.5" stroke="#EFEFF6"/>
<line x1="1388" y1="244.5" x2="1281" y2="244.5" stroke="#EFEFF6"/>
<line x1="1388" y1="260.5" x2="1281" y2="260.5" stroke="#EFEFF6"/>
<line x1="1388" y1="276.5" x2="1281" y2="276.5" stroke="#EFEFF6"/>
<line x1="1388" y1="292.5" x2="1281" y2="292.5" stroke="#EFEFF6"/>
<line x1="1388" y1="308.5" x2="1281" y2="308.5" stroke="#EFEFF6"/>
<line x1="1388" y1="324.5" x2="1281" y2="324.5" stroke="#EFEFF6"/>
<line x1="1388" y1="340.5" x2="1281" y2="340.5" stroke="#EFEFF6"/>
<line x1="1388" y1="356.5" x2="1281" y2="356.5" stroke="#EFEFF6"/>
<line x1="1388" y1="372.5" x2="1281" y2="372.5" stroke="#EFEFF6"/>
<line x1="1388" y1="388.5" x2="1281" y2="388.5" stroke="#EFEFF6"/>
<line x1="1388" y1="404.5" x2="1281" y2="404.5" stroke="#EFEFF6"/>
<line x1="1388" y1="420.5" x2="1281" y2="420.5" stroke="#EFEFF6"/>
<line x1="1388" y1="436.5" x2="1281" y2="436.5" stroke="#EFEFF6"/>
<line x1="1388" y1="452.5" x2="1281" y2="452.5" stroke="#EFEFF6"/>
<line x1="1388" y1="468.5" x2="1281" y2="468.5" stroke="#EFEFF6"/>
<line x1="1388" y1="484.5" x2="1281" y2="484.5" stroke="#EFEFF6"/>
<line x1="1388" y1="500.5" x2="1281" y2="500.5" stroke="#EFEFF6"/>
<line x1="673.5" y1="54" x2="673.5" y2="514" stroke="#EFEFF6"/>
<line x1="689.5" y1="54" x2="689.5" y2="514" stroke="#EFEFF6"/>
<line x1="705.5" y1="54" x2="705.5" y2="514" stroke="#EFEFF6"/>
<line x1="721.5" y1="54" x2="721.5" y2="514" stroke="#EFEFF6"/>
<line x1="737.5" y1="54" x2="737.5" y2="514" stroke="#EFEFF6"/>
<line x1="753.5" y1="54" x2="753.5" y2="514" stroke="#EFEFF6"/>
<line x1="769.5" y1="54" x2="769.5" y2="514" stroke="#EFEFF6"/>
<line x1="785.5" y1="54" x2="785.5" y2="514" stroke="#EFEFF6"/>
<line x1="801.5" y1="54" x2="801.5" y2="514" stroke="#EFEFF6"/>
<line x1="817.5" y1="54" x2="817.5" y2="514" stroke="#EFEFF6"/>
<line x1="833.5" y1="54" x2="833.5" y2="514" stroke="#EFEFF6"/>
<line x1="849.5" y1="54" x2="849.5" y2="514" stroke="#EFEFF6"/>
<line x1="865.5" y1="54" x2="865.5" y2="514" stroke="#EFEFF6"/>
<line x1="881.5" y1="54" x2="881.5" y2="514" stroke="#EFEFF6"/>
<line x1="897.5" y1="54" x2="897.5" y2="514" stroke="#EFEFF6"/>
<line x1="913.5" y1="54" x2="913.5" y2="514" stroke="#EFEFF6"/>
<line x1="929.5" y1="54" x2="929.5" y2="514" stroke="#EFEFF6"/>
<line x1="945.5" y1="54" x2="945.5" y2="514" stroke="#EFEFF6"/>
<line x1="961.5" y1="54" x2="961.5" y2="514" stroke="#EFEFF6"/>
<line x1="977.5" y1="54" x2="977.5" y2="514" stroke="#EFEFF6"/>
<line x1="993.5" y1="54" x2="993.5" y2="514" stroke="#EFEFF6"/>
<line x1="1009.5" y1="54" x2="1009.5" y2="514" stroke="#EFEFF6"/>
<line x1="1025.5" y1="54" x2="1025.5" y2="514" stroke="#EFEFF6"/>
<line x1="1041.5" y1="54" x2="1041.5" y2="514" stroke="#EFEFF6"/>
<line x1="1057.5" y1="54" x2="1057.5" y2="514" stroke="#EFEFF6"/>
<line x1="1073.5" y1="54" x2="1073.5" y2="514" stroke="#EFEFF6"/>
<line x1="1089.5" y1="54" x2="1089.5" y2="514" stroke="#EFEFF6"/>
<line x1="1105.5" y1="54" x2="1105.5" y2="514" stroke="#EFEFF6"/>
<line x1="1121.5" y1="54" x2="1121.5" y2="514" stroke="#EFEFF6"/>
<line x1="1137.5" y1="54" x2="1137.5" y2="514" stroke="#EFEFF6"/>
<line x1="1153.5" y1="54" x2="1153.5" y2="514" stroke="#EFEFF6"/>
<line x1="1169.5" y1="54" x2="1169.5" y2="514" stroke="#EFEFF6"/>
<line x1="1185.5" y1="54" x2="1185.5" y2="514" stroke="#EFEFF6"/>
<line x1="1201.5" y1="54" x2="1201.5" y2="514" stroke="#EFEFF6"/>
<line x1="1217.5" y1="54" x2="1217.5" y2="514" stroke="#EFEFF6"/>
<line x1="1233.5" y1="54" x2="1233.5" y2="514" stroke="#EFEFF6"/>
<line x1="1249.5" y1="54" x2="1249.5" y2="514" stroke="#EFEFF6"/>
<line x1="1265.5" y1="54" x2="1265.5" y2="514" stroke="#EFEFF6"/>
<line x1="1281.5" y1="54" x2="1281.5" y2="514" stroke="#EFEFF6"/>
<line x1="1292" y1="68.5" x2="661" y2="68.5" stroke="#EFEFF6"/>
<line x1="1292" y1="84.5" x2="661" y2="84.5" stroke="#EFEFF6"/>
<line x1="1292" y1="100.5" x2="661" y2="100.5" stroke="#EFEFF6"/>
<line x1="1292" y1="116.5" x2="661" y2="116.5" stroke="#EFEFF6"/>
<line x1="1292" y1="132.5" x2="661" y2="132.5" stroke="#EFEFF6"/>
<line x1="1292" y1="148.5" x2="661" y2="148.5" stroke="#EFEFF6"/>
<line x1="1292" y1="164.5" x2="661" y2="164.5" stroke="#EFEFF6"/>
<line x1="1292" y1="180.5" x2="661" y2="180.5" stroke="#EFEFF6"/>
<line x1="1292" y1="196.5" x2="661" y2="196.5" stroke="#EFEFF6"/>
<line x1="1292" y1="212.5" x2="661" y2="212.5" stroke="#EFEFF6"/>
<line x1="1292" y1="228.5" x2="661" y2="228.5" stroke="#EFEFF6"/>
<line x1="1292" y1="244.5" x2="661" y2="244.5" stroke="#EFEFF6"/>
<line x1="1292" y1="260.5" x2="661" y2="260.5" stroke="#EFEFF6"/>
<line x1="1292" y1="276.5" x2="661" y2="276.5" stroke="#EFEFF6"/>
<line x1="1292" y1="292.5" x2="661" y2="292.5" stroke="#EFEFF6"/>
<line x1="1292" y1="308.5" x2="661" y2="308.5" stroke="#EFEFF6"/>
<line x1="1292" y1="324.5" x2="661" y2="324.5" stroke="#EFEFF6"/>
<line x1="1292" y1="340.5" x2="661" y2="340.5" stroke="#EFEFF6"/>
<line x1="1292" y1="356.5" x2="661" y2="356.5" stroke="#EFEFF6"/>
<line x1="1292" y1="372.5" x2="661" y2="372.5" stroke="#EFEFF6"/>
<line x1="1292" y1="388.5" x2="661" y2="388.5" stroke="#EFEFF6"/>
<line x1="1292" y1="404.5" x2="661" y2="404.5" stroke="#EFEFF6"/>
<line x1="1292" y1="420.5" x2="661" y2="420.5" stroke="#EFEFF6"/>
<line x1="1292" y1="436.5" x2="661" y2="436.5" stroke="#EFEFF6"/>
<line x1="1292" y1="452.5" x2="661" y2="452.5" stroke="#EFEFF6"/>
<line x1="1292" y1="468.5" x2="661" y2="468.5" stroke="#EFEFF6"/>
<line x1="1292" y1="484.5" x2="661" y2="484.5" stroke="#EFEFF6"/>
<line x1="1292" y1="500.5" x2="661" y2="500.5" stroke="#EFEFF6"/>
</svg>
