<svg width="605" height="100" viewBox="0 0 605 100" fill="none" xmlns="http://www.w3.org/2000/svg">
<path d="M191.8 86V16H202.8L227.6 74.1L252.1 16H262.9V86H254.4V30.8L231.2 86H223.5L200.3 30.8V86H191.8Z" fill="#1A1A24"/>
<path d="M6.8 86V16H17.8L42.6 74.1L67.1 16H77.9V86H69.4V30.8L46.2 86H38.5L15.3 30.8V86H6.8Z" fill="#1A1A24"/>
<path d="M276.8 86V16H321.4V24H285.5V46.4H315.4V54.4H285.5V78H322.7V86H276.8Z" fill="#1A1A24"/>
<path d="M341.3 86H332.8V16H340.8L378.4 70V16H386.9V86H378.9L341.3 32V86Z" fill="#1A1A24"/>
<path d="M396 24V16H450.1V24H427.4V86H418.7V24H396Z" fill="#1A1A24"/>
<path d="M459.4 56.1V16H468.1V56.6C468.1 71.2667 474.067 78.6 486 78.6C498.067 78.6 504.1 71.2667 504.1 56.6V16H512.8V56.1C512.8 66.1 510.5 73.7 505.9 78.9C501.367 84.0333 494.733 86.6 486 86.6C477.267 86.6 470.633 84.0333 466.1 78.9C461.633 73.7 459.4 66.1 459.4 56.1Z" fill="#1A1A24"/>
<path d="M526.8 86V16H537.8L562.6 74.1L587.1 16H597.9V86H589.4V30.8L566.2 86H558.5L535.3 30.8V86H526.8Z" fill="#1A1A24"/>
<path d="M184.993 54.4386C184.838 55.2917 184.633 56.1384 184.539 56.9971C184.195 60.1113 183.44 63.1175 182.441 66.083C181.784 68.0525 181.007 69.9795 180.114 71.8532C178.764 74.6605 177.147 77.3303 175.285 79.8254C173.419 82.3499 171.315 84.6884 169.003 86.8085C168.158 87.5785 167.329 88.3748 166.431 89.0752C165.295 89.9595 164.113 90.7878 162.913 91.5857C161.691 92.3988 160.456 93.2032 159.168 93.9044C157.807 94.6455 156.371 95.2492 154.977 95.9328C152.841 96.9826 150.584 97.7013 148.298 98.3146C146.275 98.8575 144.247 99.3868 142.141 99.5467C141.228 99.6162 140.329 99.8441 139.423 100H130.738C130.072 99.8945 129.405 99.7905 128.739 99.6802C127.26 99.4403 125.77 99.2644 124.307 98.9462C122.794 98.6168 121.299 98.1635 119.802 97.7429C117.643 97.1361 115.579 96.255 113.563 95.3027C111.646 94.3993 109.768 93.3958 108.03 92.1598C106.497 91.07 104.897 90.065 103.435 88.8873C102.058 87.7783 100.784 86.5303 99.5309 85.275C98.3896 84.1429 97.3077 82.9521 96.2895 81.7075C95.1931 80.3483 94.1867 78.9139 93.2027 77.47C92.4354 76.3442 91.7382 75.1689 91.0577 73.9872C90.5127 73.0429 90.0442 72.0547 89.5326 71.0913C89.4107 70.8602 89.2505 70.6491 89.0752 70.3781L89.1764 70.2334C88.3199 67.8852 87.2546 65.6289 86.7558 63.1695C86.4522 61.6696 85.9972 60.1984 85.7534 58.6921C85.4697 56.9419 85.3096 55.1686 85.1598 53.4C85.0514 52.1208 85.0108 50.8319 85.0004 49.5479C84.9884 47.1093 85.2474 44.6891 85.6139 42.2817C85.8108 40.9857 86.0044 39.6808 86.3239 38.412C86.9319 35.9982 87.5661 33.5876 88.5749 31.2961C88.9932 30.3471 89.3788 29.3836 89.8131 28.4426C90.5486 26.8588 91.3824 25.3228 92.3095 23.8437C93.4792 21.9648 94.6784 20.1067 96.1341 18.4364C97.3883 16.9973 98.6321 15.5405 99.9843 14.1989C101.244 12.9493 102.577 11.7771 103.977 10.689C105.539 9.47367 107.171 8.34153 108.838 7.27255C110.002 6.52499 111.257 5.90855 112.503 5.29611C113.992 4.56374 115.477 3.79458 117.031 3.22931C119.05 2.49534 121.12 1.8813 123.199 1.33762C124.803 0.917864 126.453 0.671608 128.088 0.378179C128.73 0.263046 129.387 0.233464 130.036 0.151112C130.275 0.121529 130.504 0.0519696 130.738 0H139.098C139.628 0.097543 140.154 0.234263 140.691 0.284634C142.809 0.485317 144.914 0.777146 146.969 1.32802C148.257 1.67342 149.529 2.07879 150.799 2.48335C151.784 2.79757 152.778 3.09979 153.73 3.49956C156.698 4.74283 159.616 6.08445 162.256 7.96495C163.121 8.58139 164.05 9.10988 164.897 9.74871C168.084 12.1473 170.99 14.8657 173.531 17.9567C174.9 19.6183 176.167 21.3618 177.326 23.1777C178.682 25.292 179.868 27.511 180.874 29.8138C181.808 31.9725 182.657 34.164 183.247 36.4419C183.733 38.315 184.162 40.2024 184.536 42.1042C184.733 43.114 184.743 44.1598 184.85 45.1888C184.869 45.3711 184.948 45.5478 185 45.7277L184.993 54.4386ZM85.7231 49.8477C85.8745 52.0008 85.9534 54.1652 86.2012 56.3047C86.3924 57.9558 86.7813 59.5828 87.1119 61.2178C87.743 64.3448 88.8577 67.3103 90.1629 70.2062C90.6226 71.228 91.1342 72.2266 91.6537 73.2188C92.2115 74.283 92.7302 75.3776 93.3947 76.3698C94.3804 77.8433 95.4433 79.2705 96.5413 80.6633C97.5373 81.9266 98.5731 83.1674 99.6871 84.3259C100.723 85.4029 101.872 86.3696 102.991 87.3642C103.787 88.0694 104.568 88.8033 105.438 89.407C107.031 90.5119 108.642 91.5945 110.317 92.5651C112.037 93.5614 113.788 94.5376 115.618 95.2987C118.382 96.4618 121.238 97.3914 124.155 98.0779C126.503 98.6216 128.877 98.9118 131.26 99.1461C132.827 99.2921 134.402 99.3455 135.975 99.306C137.552 99.274 139.128 99.1181 140.7 98.967C141.729 98.8679 142.755 98.7159 143.77 98.5233C144.886 98.3106 145.992 98.0036 147.108 97.7733C149.151 97.3519 151.084 96.5876 153.03 95.8736C155.001 95.1525 156.898 94.2422 158.695 93.1552C160.232 92.2237 161.803 91.3411 163.278 90.3161C164.617 89.3838 165.868 88.3172 167.113 87.2578C168.207 86.3248 169.275 85.3533 170.289 84.3331C171.166 83.4489 171.987 82.4942 172.779 81.5348C173.848 80.2267 174.949 78.9315 175.886 77.5283C176.942 75.9412 177.832 74.2422 178.786 72.588C179.827 70.7811 180.582 68.8406 181.304 66.8953C182.256 64.3295 182.976 61.6831 183.456 58.988C183.817 56.9675 184.121 54.9431 184.173 52.8867C184.191 52.1551 184.259 51.4252 184.274 50.6936C184.292 49.8005 184.316 48.9042 184.274 48.0128C184.221 46.9534 184.115 45.8956 184.001 44.8394C183.879 43.6993 183.811 42.5432 183.566 41.4278C183.125 39.429 182.61 37.4405 182.052 35.4697C181.355 33.0247 180.387 30.6853 179.259 28.3994C178.375 26.6061 177.363 24.8999 176.311 23.2072C174.706 20.6192 172.809 18.2565 170.716 16.0642C169.38 14.6658 167.927 13.373 166.466 12.1041C163.922 9.89582 161.108 8.06729 158.142 6.49061C156.549 5.65341 154.915 4.89951 153.244 4.23193C150.903 3.27202 148.486 2.5093 146.019 1.95166C144.369 1.58547 142.716 1.24008 141.026 1.10735C139.317 0.973831 137.61 0.806729 135.899 0.694794C135.417 0.663612 134.913 0.867493 134.44 0.803531C133.603 0.699559 132.756 0.705203 131.92 0.820321C130.218 1.0306 128.494 1.08896 126.808 1.38719C123.289 2.00301 119.845 2.99253 116.534 4.33907C114.18 5.29422 111.906 6.4361 109.732 7.75387C107.896 8.87929 106.125 10.1072 104.426 11.4317C102.737 12.7406 101.191 14.1957 99.7006 15.7028C98.362 17.0572 97.1509 18.5492 95.9676 20.0459C94.0282 22.4949 92.433 25.1733 91.0083 27.9525C89.8131 30.2895 88.8506 32.7321 88.0498 35.2282C87.197 37.8857 86.6028 40.6198 86.2753 43.3923C86.0195 45.5342 85.7964 47.6754 85.7231 49.8477Z" fill="#1A1A24"/>
<path d="M131.174 48.4138C132.238 47.5813 133.313 46.9714 134.562 46.7659C136.498 46.4423 138.374 46.5798 140.095 47.6558C141.254 48.3839 141.95 49.5165 142.387 50.7825C143.129 52.9288 143.236 55.1511 142.493 57.3055C141.629 59.819 139.876 61.361 137.276 61.8189C135.682 62.1086 134.046 62.0502 132.475 61.6474C130.432 61.1239 129.023 59.8328 128.137 57.8791C127.58 56.6534 127.396 55.3485 127.206 54.0323C126.937 52.157 126.97 50.2713 127.087 48.3992C127.191 46.7222 127.37 45.0184 127.789 43.4021C128.182 41.8933 128.93 40.4662 130.165 39.4477C131.171 38.6185 132.36 38.108 133.644 38.0336C134.849 37.9667 136.058 37.9997 137.259 38.1323C139.459 38.3693 141.782 40.5042 142.106 43.4191C142.18 44.0905 142.476 44.7749 142.052 45.4351C140.969 45.1786 138.764 45.283 138.271 45.6325C138.1 44.8421 137.952 44.059 137.758 43.2864C137.634 42.8026 137.366 42.3706 136.993 42.0504C136.619 41.7302 136.158 41.5376 135.674 41.4993C135.352 41.4742 135.024 41.5187 134.705 41.4831C133.428 41.3432 132.335 42.2921 131.884 43.5218C131.392 44.8631 131.315 46.2724 131.204 47.676C131.19 47.8936 131.187 48.1072 131.174 48.4138ZM135.093 58.464C136.571 58.5813 137.677 57.8977 138.315 56.5224C138.928 55.2005 138.97 53.8017 138.437 52.4224C138.191 51.7833 137.937 51.1587 137.331 50.7389C136.482 50.1507 135.602 49.9703 134.588 50.1216C133.318 50.3101 132.424 50.9864 131.949 52.1506C131.442 53.3924 131.293 54.6868 131.75 56.0281C132.269 57.5619 133.34 58.5991 135.093 58.464Z" fill="#1A1A24"/>
</svg>
