<svg width="93" height="34" viewBox="0 0 93 34" fill="none" xmlns="http://www.w3.org/2000/svg">
<path d="M86.7924 21.8824V25.8499H93V21.113C93 19.5741 92.8372 18.1554 92.535 16.9051C92.256 15.6547 91.7678 14.5487 91.047 13.635C90.3495 12.7212 89.4196 12.0239 88.2106 11.519C87.0481 11.014 85.5834 10.7496 83.7932 10.7496C83.1887 10.7496 82.5377 10.8217 81.8867 10.966C81.259 11.0862 80.7242 11.2064 80.3057 11.3507V0.506348L74.0981 1.54028V33.8809H80.3057V16.6646C80.701 16.5444 81.1195 16.4482 81.5845 16.3521C82.0727 16.2318 82.6074 16.1837 83.1654 16.1837C84.5604 16.1837 85.4904 16.6166 86.0019 17.4822C86.5366 18.3478 86.7924 19.8145 86.7924 21.8824Z" fill="#263238"/>
<path d="M92.9981 33.9043L86.7207 33.3191V27.6526H92.9981V33.9043Z" fill="#FF7D1F"/>
<path fill-rule="evenodd" clip-rule="evenodd" d="M71.9581 22.3859C69.9818 24.3336 67.3314 25.5118 64.3787 25.5118C58.3338 25.5118 53.4281 20.4383 53.4281 14.1866C53.4281 7.93484 58.3338 2.86133 64.3787 2.86133C67.3546 2.86133 70.0516 4.08763 72.0278 6.08337L68.0754 10.171C67.0989 9.23327 65.7969 8.65619 64.3322 8.65619C61.3097 8.65619 58.8685 11.1809 58.8685 14.3068C58.8685 17.4326 61.3097 19.9574 64.3322 19.9574C65.7969 19.9574 67.0989 19.3803 68.0986 18.4185L71.9581 22.3859Z" fill="#FDAE40"/>
<path fill-rule="evenodd" clip-rule="evenodd" d="M71.9581 30.6325C69.9818 32.5802 67.3314 33.7584 64.3787 33.7584C58.3338 33.7584 53.4281 28.6849 53.4281 22.4331C53.4281 16.1814 58.3338 11.1079 64.3787 11.1079C67.3546 11.1079 70.0516 12.3342 72.0278 14.3299L68.0986 18.4176C67.1221 17.4799 65.7969 16.9028 64.3322 16.9028C61.3097 16.9028 58.8685 19.4275 58.8685 22.5534C58.8685 25.6792 61.3097 28.204 64.3322 28.204C65.7969 28.204 67.0989 27.6269 68.0986 26.6651L71.9581 30.6325Z" fill="#FF7D1F"/>
<path d="M51.2437 27.7714C50.6624 28.0119 50.0114 28.1802 49.2907 28.3245C48.5932 28.4447 47.919 28.4928 47.2447 28.4928C45.8498 28.4928 44.9198 28.084 44.4548 27.2905C44.013 26.4971 43.7805 25.415 43.7805 24.0685V16.1096H51.2204V10.7716H43.7805V4.11108L37.5729 5.14502V24.1647C37.5729 25.6314 37.6892 26.9539 37.9449 28.1562C38.2239 29.3584 38.6889 30.3924 39.3631 31.258C40.0374 32.0996 40.9208 32.7488 42.0368 33.2297C43.1528 33.6865 44.5478 33.927 46.245 33.927C47.5702 33.927 48.7095 33.8068 49.6162 33.5904C50.5229 33.3499 51.3599 33.0854 52.1039 32.7728L51.2437 27.7714Z" fill="#263238"/>
<path d="M25.272 10.1714C23.9468 10.1714 22.6448 10.4359 21.3661 10.9408C20.1106 11.4458 19.0179 12.2152 18.0414 13.2251C17.0649 14.235 16.2744 15.4853 15.6699 17.0002C15.0887 18.491 14.7864 20.2463 14.7864 22.242C14.7864 23.9011 15.0189 25.4641 15.4607 26.8827C15.9257 28.3254 16.6464 29.5758 17.5764 30.6338C18.5529 31.6677 19.7618 32.4852 21.2033 33.0864C22.668 33.6875 24.3885 34.0001 26.3647 34.0001C27.132 34.0001 27.9225 33.952 28.6897 33.8798C29.4569 33.7837 30.1777 33.6875 30.8519 33.5432C31.5494 33.423 32.1771 33.2787 32.7351 33.1104C33.2931 32.9421 33.7348 32.7738 34.0603 32.6055L33.2234 27.3877C32.5259 27.7003 31.6191 27.9647 30.5264 28.2052C29.4337 28.3976 28.3409 28.5178 27.2017 28.5178C25.4347 28.5178 24.0165 28.1331 22.947 27.3636C21.9008 26.5942 21.2963 25.5362 21.1568 24.2137H35.2228C35.2461 23.8771 35.2693 23.4924 35.3158 23.0596C35.3391 22.6027 35.3623 22.1939 35.3623 21.8092C35.3623 17.986 34.4556 15.1006 32.6654 13.153C30.8286 11.1572 28.3874 10.1714 25.272 10.1714ZM21.1568 19.8135C21.2498 19.2604 21.3661 18.7314 21.5288 18.2265C21.7148 17.6735 21.9938 17.2166 22.3193 16.8078C22.6448 16.3991 23.0633 16.0865 23.5748 15.8701C24.063 15.6056 24.6675 15.4854 25.365 15.4854C26.0857 15.4854 26.6902 15.6056 27.1552 15.8701C27.6435 16.1346 28.0619 16.4472 28.3642 16.8559C28.6897 17.2647 28.9222 17.7215 29.0617 18.2265C29.2244 18.7314 29.3174 19.2845 29.3639 19.8135H21.1568Z" fill="#263238"/>
<path d="M6.37039 7.95892C6.50988 7.45398 6.71913 6.99712 6.99813 6.63644C7.30037 6.25172 7.69561 5.98723 8.2071 5.77082C8.74184 5.53037 9.36958 5.43419 10.1136 5.43419C10.6716 5.43419 11.276 5.50632 11.9038 5.65059C12.578 5.77082 13.1825 5.96318 13.7405 6.20363L14.9495 1.08203C14.4147 0.841578 13.6708 0.625174 12.6943 0.384723C11.7178 0.120227 10.6483 0 9.48583 0C6.34714 0 3.97568 0.865622 2.37146 2.57282C0.790485 4.30407 0 6.6124 0 9.5459V25.608H6.20764V16.0862H13.8568V10.7482H6.20764V9.61803C6.20764 9.04095 6.25414 8.48792 6.37039 7.95892Z" fill="#263238"/>
<path d="M0 33.9287L6.20764 33.3276V27.5327H0V33.9287Z" fill="#FF7D1F"/>
</svg>
