<svg width="20" height="20" viewBox="0 0 20 20" fill="none" xmlns="http://www.w3.org/2000/svg">
<g id="Frame">
<path id="Vector" d="M16.3612 6.66461C16.372 6.81044 16.372 6.95544 16.372 7.10044C16.372 11.5379 12.9945 16.6513 6.82199 16.6513C4.92033 16.6513 3.15366 16.1004 1.66699 15.1438C1.93699 15.1746 2.19699 15.1854 2.47783 15.1854C3.98865 15.1891 5.4567 14.6839 6.64533 13.7513C5.94484 13.7386 5.26581 13.5075 4.70302 13.0902C4.14024 12.673 3.72181 12.0904 3.50616 11.4238C3.71366 11.4546 3.92199 11.4754 4.14033 11.4754C4.44116 11.4754 4.74366 11.4338 5.02449 11.3613C4.26429 11.2078 3.58072 10.7957 3.09001 10.1952C2.5993 9.59463 2.33174 8.84265 2.33283 8.06711V8.02544C2.78033 8.27461 3.29949 8.43044 3.84949 8.45128C3.38873 8.1451 3.01093 7.72963 2.74978 7.24194C2.48863 6.75424 2.35225 6.20949 2.35283 5.65628C2.35283 5.03294 2.51866 4.46128 2.80949 3.96294C3.65294 5.00046 4.70491 5.84924 5.89727 6.45432C7.08963 7.05941 8.39579 7.40729 9.73116 7.47544C9.67949 7.22544 9.64783 6.96628 9.64783 6.70628C9.64761 6.26541 9.73428 5.82882 9.90289 5.42148C10.0715 5.01413 10.3187 4.64401 10.6305 4.33227C10.9422 4.02053 11.3123 3.77329 11.7197 3.60467C12.127 3.43606 12.5636 3.34939 13.0045 3.34961C13.9712 3.34961 14.8437 3.75461 15.457 4.40961C16.2085 4.26429 16.9291 3.98996 17.587 3.59878C17.3365 4.37446 16.8118 5.0322 16.1112 5.44878C16.7776 5.37276 17.429 5.19749 18.0437 4.92878C17.5846 5.59803 17.0158 6.1849 16.3612 6.66461Z" fill="white"/>
</g>
</svg>
